<?xml version="1.0" encoding="UTF-8"?>
<svg xmlns="http://www.w3.org/2000/svg" xmlns:xlink="http://www.w3.org/1999/xlink" width="32px" height="32px" viewBox="0 0 32 32" version="1.1">
<g id="surface1">
<path style=" stroke:none;fill-rule:evenodd;fill:rgb(6.27451%,17.647059%,41.176471%);fill-opacity:1;" d="M 32 16 C 32 7.164062 24.835938 0 16 0 C 7.164062 0 0 7.164062 0 16 C 0 24.835938 7.164062 32 16 32 C 24.835938 32 32 24.835938 32 16 Z M 32 16 "/>
<path style=" stroke:none;fill-rule:evenodd;fill:rgb(100%,100%,100%);fill-opacity:1;" d="M 15.308594 15.050781 C 18.949219 15.050781 20.367188 17.472656 20.367188 21.902344 L 20.367188 25.234375 L 18.03125 25.234375 L 18.03125 18.082031 L 15.332031 18.082031 L 15.332031 25.242188 L 13.269531 25.242188 L 13.269531 6.054688 L 15.390625 6.054688 C 16.183594 6.054688 17.386719 6.234375 18.238281 7.292969 C 18.683594 7.828125 18.953125 8.539062 19.050781 9.253906 L 15.332031 9.253906 L 15.332031 10.308594 L 19.082031 10.308594 C 19.054688 10.992188 18.914062 11.753906 18.246094 12.5625 C 17.660156 13.300781 16.691406 13.980469 15.328125 13.980469 C 15.324219 13.980469 15.316406 13.980469 15.308594 13.980469 L 15.308594 15.050781 M 23.300781 22.300781 C 23.300781 18.367188 22.03125 15.71875 18.734375 14.558594 C 19.773438 14.132812 20.40625 13.476562 20.820312 12.976562 C 21.613281 12.066406 21.9375 10.949219 21.9375 9.894531 C 21.9375 9.042969 21.703125 7.335938 20.203125 6.164062 C 19.175781 5.371094 18.265625 4.988281 16.09375 4.988281 L 14.992188 4.988281 C 14.957031 4.984375 14.921875 4.984375 14.882812 4.984375 L 10.347656 4.984375 L 10.347656 26.410156 L 23.300781 26.410156 Z M 23.300781 22.300781 "/>
</g>
</svg>
